<svg version="1.2" xmlns="http://www.w3.org/2000/svg" viewBox="0 0 48 48" width="48" height="48">
	<title>sync-svg</title>
	<style>
		.s0 { fill: #ffffff } 
	</style>
	<path id="Layer" class="s0" d="m38.7 18.7h-9.4v-1.7h6.4l-2.5-2.6q-1.8-1.9-4.2-2.9-2.3-0.9-4.9-0.9-4.2 0-7.5 2.2-3.4 2.2-5.1 5.9h-1.8q1.7-4.5 5.7-7.2 3.9-2.7 8.7-2.7 3 0 5.6 1.2 2.7 1.2 5.2 3.6l2.1 2.2v-6.6h1.8zm-6.2 17.8q-3.9 2.7-8.7 2.7-2.8 0-5.5-1.2-2.8-1.2-5.2-3.7l-2.2-2.1v6.6h-1.8v-9.5h9.5v1.7h-6.4l2.5 2.7q1.9 1.8 4.3 2.8 2.4 1 4.8 1 4.1 0 7.5-2.2 3.5-2.3 5.1-6.1h1.8q-1.8 4.5-5.7 7.3z"/>
</svg>